<?xml version="1.0" encoding="utf-8"?>
<!-- Generator: Adobe Illustrator 22.0.1, SVG Export Plug-In . SVG Version: 6.00 Build 0)  -->
<svg version="1.1" xmlns="http://www.w3.org/2000/svg" xmlns:xlink="http://www.w3.org/1999/xlink" x="0px" y="0px"
	 viewBox="0 0 300 293" style="enable-background:new 0 0 300 293;" xml:space="preserve">
<style type="text/css">
	.st0{fill:#FFFF66;}
	.st1{fill:#FF99CC;}
	.st2{fill:#FF9933;}
	.st3{fill:#66FFFF;}
	.st4{fill:#8C6239;}
	.st5{fill:#CC0033;}
	.st6{fill:#33CCCC;}
	.st7{fill:#FFCCFF;}
</style>
<g id="Layer_1">
</g>
<g id="body">
	<g>
		<g>
			<path d="M155.3,134.3c-0.7-1.9-2.7-3-4.6-3c-1,0-1.1,0-1.7,0h-16.1c-0.6,0-1.1,0-1.7,0c-2.2,0-3.9,1.1-4.6,3l-8.5,25.8
				c-0.8,2.2,0.3,4.6,2.4,5.4c2.2,0.8,4.6-0.3,5.4-2.5l2.3-6.1c0,0,0.2-0.6,0.2,2.1v35.8c0,3.1,2.5,5.7,5.6,5.7
				c3.1,0,5.6-2.5,5.6-5.7v-23.4c0,0,0-0.2,0.2-0.2c0.5,0,1.7,0,2.3,0c0.2,0,0.2,0.2,0.2,0.2v23.4c0,3.1,2.5,5.7,5.6,5.7
				s5.6-2.5,5.6-5.7V159c0-2.7,0.2-1.9,0.2-1.9l2.2,5.9c0.8,2.2,3.2,3.3,5.4,2.5c2.2-0.8,3.3-3.2,2.4-5.4L155.3,134.3z"/>
		</g>
	</g>
</g>
<g id="head">
	<g>
		<ellipse cx="141.1" cy="120.4" rx="12.1" ry="11.9"/>
	</g>
</g>
</svg>
