<svg xmlns="http://www.w3.org/2000/svg" viewBox="0 0 46.16 92">
  <path fill="#E4572E" d="M37.4 25.77a4.85 4.85 0 0 0-4.62-3h-19.4a4.58 4.58 0 0 0-4.62 3L.27 51.57A4.22 4.22 0 0 0 2.71 57a4.17 4.17 0 0 0 5.38-2.46l2.25-6.08s.17-.61.17 2.07v35.8a5.62 5.62 0 1 0 11.24 0v-23.4a.17.17 0 0 1 .19-.2h2.28a.18.18 0 0 1 .19.2v23.4a5.63 5.63 0 1 0 11.25 0V50.52c0-2.72.23-1.87.23-1.87l2.19 5.88A4.16 4.16 0 0 0 43.45 57a4.22 4.22 0 0 0 2.45-5.42z"/>
  <ellipse fill="#E4572E" cx="23.2" cy="11.93" rx="12.05" ry="11.93"/>
</svg>